<?xml version="1.0" standalone="no"?>
<!DOCTYPE svg PUBLIC "-//W3C//DTD SVG 20010904//EN"
 "http://www.w3.org/TR/2001/REC-SVG-20010904/DTD/svg10.dtd">
<svg version="1.0" xmlns="http://www.w3.org/2000/svg"
 width="321.000000pt" height="1280.000000pt" viewBox="0 0 321.000000 1280.000000"
 preserveAspectRatio="xMidYMid meet">
<g transform="translate(0.000000,1280.000000) scale(0.100000,-0.100000)"
fill="#000000" stroke="none">
<path d="M2139 12657 c-20 -19 -38 -41 -42 -50 -8 -21 -31 -22 -51 -2 -15 16
-61 21 -52 6 9 -13 -23 -70 -46 -82 -47 -25 -100 30 -63 67 28 29 11 46 -35
34 -19 -5 -24 -12 -22 -29 3 -21 1 -23 -25 -17 -15 4 -31 13 -35 19 -5 8 -10
8 -20 -1 -9 -7 -32 -8 -70 -3 l-56 7 6 -38 c4 -34 2 -38 -17 -38 -16 0 -21 6
-21 25 0 34 -27 47 -63 28 -16 -8 -36 -12 -44 -9 -9 4 -22 1 -29 -5 -11 -9
-18 -8 -28 0 -11 9 -20 10 -35 1 -24 -12 -44 -46 -36 -59 8 -14 -5 -41 -20
-41 -12 0 -55 -38 -81 -72 -23 -30 -33 -55 -28 -75 5 -16 -3 -23 -43 -40 -36
-15 -55 -18 -73 -11 -38 14 -69 2 -75 -30 -3 -15 -10 -39 -14 -54 -12 -37 -3
-68 19 -68 25 0 63 -75 53 -103 -4 -12 -6 -26 -5 -30 2 -5 -11 -14 -28 -20
-23 -9 -33 -21 -41 -49 -8 -32 -40 -68 -60 -68 -4 0 -9 10 -13 22 -5 22 -6 22
-19 4 -9 -13 -20 -17 -32 -12 -25 9 -38 -14 -19 -36 9 -9 21 -15 28 -12 8 3
16 -16 23 -58 13 -78 4 -99 -40 -95 -26 2 -33 -2 -35 -20 -3 -17 5 -25 31 -37
27 -11 36 -21 41 -49 7 -40 32 -94 54 -119 9 -11 12 -27 8 -42 -3 -14 -2 -28
4 -31 13 -8 13 -45 -1 -45 -5 0 -15 14 -21 31 -9 28 -12 29 -27 15 -10 -9 -25
-16 -34 -16 -21 0 -23 -42 -3 -59 8 -6 19 -31 25 -55 l11 -43 56 -6 c31 -3 61
-10 65 -14 5 -5 4 -37 -2 -71 -10 -55 -14 -62 -30 -57 -17 6 -19 1 -19 -45 0
-49 2 -52 65 -115 52 -51 77 -68 123 -81 31 -10 66 -26 78 -36 11 -10 30 -18
42 -18 31 0 28 -26 -5 -47 -42 -25 -53 -43 -53 -85 0 -31 -8 -45 -49 -87 -56
-57 -81 -63 -261 -58 -95 2 -110 0 -161 -24 -103 -49 -240 -198 -275 -302 -31
-92 -32 -160 -7 -331 18 -123 22 -183 18 -256 -6 -89 -9 -101 -58 -198 l-52
-104 1 -116 c0 -103 5 -130 33 -222 34 -109 36 -174 8 -224 -7 -12 -13 -48
-15 -81 -1 -33 -3 -83 -5 -111 -1 -28 -9 -59 -17 -68 -9 -12 -14 -41 -15 -81
0 -48 -5 -68 -19 -84 -16 -18 -18 -26 -9 -56 9 -28 7 -55 -12 -137 -37 -166
-37 -166 -15 -185 11 -10 20 -30 20 -45 0 -79 -117 -585 -235 -1013 -13 -49
-34 -134 -45 -188 -11 -54 -34 -131 -51 -173 -31 -74 -31 -76 -15 -117 9 -23
43 -90 76 -148 58 -104 60 -107 129 -143 60 -32 78 -36 140 -36 72 0 87 10 60
37 -7 7 -9 19 -6 27 8 19 67 57 79 50 4 -3 8 -42 8 -87 1 -110 12 -157 46
-182 62 -46 63 -48 90 -175 79 -384 163 -671 370 -1262 103 -295 117 -343 170
-603 31 -156 37 -208 44 -390 20 -511 60 -761 182 -1135 49 -149 50 -158 45
-235 -4 -44 -13 -105 -22 -135 -8 -30 -15 -78 -15 -105 0 -223 -134 -608 -366
-1057 -29 -57 -56 -131 -78 -217 -52 -198 -38 -224 126 -242 147 -16 320 2
360 38 9 8 35 46 58 83 32 54 46 91 66 185 41 196 102 437 113 448 19 19 26
-4 24 -76 -1 -40 4 -140 13 -224 13 -135 13 -172 -1 -342 -8 -104 -20 -202
-25 -216 -15 -40 -12 -85 9 -145 l19 -55 274 2 273 2 2 23 c1 13 5 53 9 90 4
43 2 84 -6 115 -7 26 -18 91 -25 143 -8 52 -23 138 -34 190 -12 52 -26 151
-31 220 -20 241 -32 326 -67 490 -19 91 -35 190 -35 220 0 30 -8 88 -19 129
-12 49 -19 108 -19 170 0 53 -9 146 -19 206 -11 61 -23 169 -27 240 l-7 130
80 220 c89 245 132 390 163 542 32 160 36 217 16 244 -11 17 -16 46 -16 104 0
44 -7 135 -15 200 -26 213 -17 462 26 685 31 162 70 301 177 631 55 167 116
363 137 435 46 161 47 164 75 139 25 -22 24 -23 70 66 16 31 58 99 94 153 36
53 82 129 102 169 20 39 45 84 55 99 11 14 25 59 33 100 14 74 28 112 86 247
24 56 34 97 40 163 4 49 9 90 11 91 2 2 17 8 32 15 22 9 27 17 22 30 -5 9 -10
29 -13 45 -3 18 -10 27 -23 27 -12 0 -19 7 -19 20 0 15 7 20 25 20 33 0 32 16
-2 32 -27 13 -28 16 -35 118 -4 58 -5 213 -3 344 4 243 7 255 42 256 22 0 24
42 10 179 -12 114 -12 140 -1 168 18 41 19 34 -16 78 -32 41 -37 70 -18 122
11 29 10 35 -12 58 -32 34 -51 144 -37 215 8 44 7 53 -9 71 -27 30 -36 192
-19 319 13 100 9 154 -19 245 -13 39 -15 77 -10 175 6 121 5 127 -23 195 l-28
70 -1 245 c0 204 -3 252 -17 289 -35 90 -144 209 -234 254 -52 27 -117 46
-248 72 -90 18 -215 71 -215 91 0 7 7 17 16 22 22 12 9 32 -20 32 -55 0 -69
36 -46 119 10 39 9 45 -9 65 -12 12 -21 30 -21 39 0 9 -9 22 -20 29 -24 15
-26 34 -4 42 26 10 32 7 50 -23 16 -27 19 -28 31 -13 11 15 14 15 23 2 9 -13
11 -13 19 -1 7 11 10 9 13 -10 2 -17 9 -23 23 -22 43 5 65 -7 82 -47 10 -22
22 -40 28 -40 16 1 92 37 99 48 3 6 15 8 26 5 15 -4 20 0 20 15 0 12 -5 24
-11 28 -8 4 -6 10 6 17 17 9 16 11 -5 22 -18 10 -28 10 -41 2 -10 -6 -21 -8
-25 -4 -8 7 14 38 25 34 3 -1 17 8 31 21 26 24 36 27 45 12 12 -19 34 -10 71
27 36 36 36 37 15 45 -22 8 -20 30 2 27 7 -1 21 -1 32 0 14 1 16 4 7 13 -9 9
-6 19 14 45 24 32 19 48 -6 18 -15 -19 -56 -20 -63 -2 -3 7 -3 34 0 60 5 43 8
47 38 53 18 3 42 1 53 -5 18 -10 21 -7 27 20 7 29 9 31 41 26 25 -4 32 -3 27
6 -10 16 -4 69 10 86 9 10 6 17 -11 31 -24 20 -30 60 -9 60 7 0 19 -6 26 -12
11 -11 13 -10 8 5 -4 10 1 29 10 43 12 19 13 28 4 37 -16 16 -14 34 9 57 14
14 18 28 14 45 -5 20 -10 23 -35 18 -26 -5 -29 -3 -29 21 0 14 -4 26 -10 26
-5 0 -10 9 -10 20 0 11 7 20 15 20 8 0 15 -7 15 -15 0 -8 6 -15 14 -15 26 0
29 21 5 46 -12 13 -19 27 -14 31 4 5 10 2 12 -4 6 -17 28 -16 43 2 16 19 5 51
-13 37 -7 -6 -21 -6 -34 -1 -28 10 -31 49 -5 56 32 8 45 40 32 79 -6 18 -9 38
-5 44 3 5 -1 10 -9 10 -10 0 -16 9 -16 24 0 27 -15 42 -25 26 -3 -5 -13 -10
-22 -10 -11 0 -14 6 -9 24 4 15 1 26 -7 29 -8 3 -9 8 -2 16 16 17 6 89 -14 96
-9 2 -22 14 -29 26 -12 18 -11 24 8 44 11 12 18 29 15 37 -4 9 -2 19 4 23 20
12 12 65 -13 90 -25 25 -89 47 -111 39 -8 -3 -15 -18 -17 -32 -3 -24 -7 -27
-38 -27 l-34 1 -1 54 c0 40 5 61 19 78 15 17 17 25 8 34 -15 15 -45 -9 -39
-32 2 -10 -5 -22 -16 -30 -17 -10 -22 -10 -33 5 -7 10 -15 23 -17 29 -2 6 -12
2 -23 -11 -27 -30 -62 -39 -71 -17 -4 12 0 22 15 32 32 21 12 52 -33 52 -24 0
-35 5 -35 15 0 8 -9 19 -20 25 -17 9 -18 14 -8 30 11 17 9 23 -10 42 -19 19
-25 21 -42 10 -26 -16 -40 -15 -40 3 0 8 -4 15 -9 15 -6 0 -11 15 -13 33 -4
45 -34 47 -79 4z m170 -113 c2 -2 -2 -10 -9 -19 -12 -14 -15 -14 -31 1 -27 25
-23 37 8 29 16 -4 30 -8 32 -11z m-893 -71 c-10 -10 -19 5 -10 18 6 11 8 11
12 0 2 -7 1 -15 -2 -18z m174 18 c0 -6 -4 -13 -10 -16 -5 -3 -10 1 -10 9 0 9
5 16 10 16 6 0 10 -4 10 -9z m719 -20 c19 -12 6 -41 -19 -41 -13 0 -20 7 -20
18 0 31 14 39 39 23z m436 -181 c-3 -5 -13 -10 -21 -10 -8 0 -12 5 -9 10 3 6
13 10 21 10 8 0 12 -4 9 -10z m45 -254 c0 -8 -4 -17 -9 -21 -12 -7 -24 12 -16
25 9 15 25 12 25 -4z m-1810 -325 c0 -12 -20 -25 -27 -18 -7 7 6 27 18 27 5 0
9 -4 9 -9z m1485 -992 c10 -15 -1 -23 -20 -15 -9 3 -13 10 -10 16 8 13 22 13
30 -1z m75 -15 c0 -17 -22 -14 -28 4 -2 7 3 12 12 12 9 0 16 -7 16 -16z m-106
-1921 c22 -48 29 -85 42 -213 8 -85 18 -200 21 -255 3 -56 12 -109 19 -120 20
-31 29 -158 14 -195 -12 -28 -11 -34 10 -62 16 -22 25 -52 30 -102 9 -81 54
-286 70 -316 7 -13 21 -20 39 -20 16 0 33 -6 38 -12 10 -14 138 -525 149 -596
7 -43 7 -44 -22 -40 l-29 3 -41 203 c-44 219 -38 205 -162 405 -42 68 -53 93
-48 113 5 20 -1 34 -28 66 -19 22 -42 55 -51 74 -8 18 -23 37 -32 42 -10 6
-14 17 -10 31 4 15 -3 26 -24 42 -44 31 -54 55 -39 100 l13 38 -52 53 c-131
133 -121 119 -120 173 0 28 -2 77 -6 110 -6 55 -4 65 25 120 17 33 35 85 40
114 6 32 24 79 45 112 21 35 38 76 41 106 7 51 20 83 33 83 4 0 20 -26 35 -57z
m-1856 -1590 c2 -18 -2 -49 -8 -70 -22 -72 -32 -179 -30 -306 3 -169 -29 -547
-46 -547 -7 0 -20 7 -29 16 -14 15 -14 18 0 40 15 23 14 25 -8 33 -35 13 -40
33 -42 157 -3 120 -7 144 -37 246 l-19 66 44 114 c44 111 109 250 130 276 18
22 42 9 45 -25z m2292 -383 c13 -9 13 -11 0 -20 -21 -14 -40 -12 -40 3 0 26
16 33 40 17z m26 -151 c8 -14 -31 -53 -45 -45 -6 4 -11 18 -11 32 0 19 5 24
24 24 14 0 28 -5 32 -11z m-2590 -224 c22 -55 30 -125 13 -125 -21 0 -59 74
-59 113 0 58 24 64 46 12z m44 -205 c0 -5 -4 -10 -10 -10 -5 0 -10 5 -10 10 0
6 5 10 10 10 6 0 10 -4 10 -10z m160 -9 c0 -11 -4 -22 -8 -25 -14 -9 -35 12
-29 28 9 23 37 20 37 -3z m2258 -182 c-1 -13 -11 -25 -20 -27 -21 -4 -22 6 -8
44 13 33 34 20 28 -17z m-66 -211 c-7 -7 -12 -8 -12 -2 0 14 12 26 19 19 2 -3
-1 -11 -7 -17z"/>
<path d="M1785 12630 c-3 -5 1 -10 9 -10 9 0 16 5 16 10 0 6 -4 10 -9 10 -6 0
-13 -4 -16 -10z"/>
</g>
</svg>
