<?xml version="1.0" standalone="no"?>
<!DOCTYPE svg PUBLIC "-//W3C//DTD SVG 20010904//EN"
 "http://www.w3.org/TR/2001/REC-SVG-20010904/DTD/svg10.dtd">
<svg version="1.0" xmlns="http://www.w3.org/2000/svg"
 width="988.000000pt" height="1280.000000pt" viewBox="0 0 988.000000 1280.000000"
 preserveAspectRatio="xMidYMid meet">
<metadata>
Created by potrace 1.15, written by Peter Selinger 2001-2017
</metadata>
<g transform="translate(0.000000,1280.000000) scale(0.100000,-0.100000)"
fill="#000000" stroke="none">
<path d="M5191 12665 c-18 -8 -44 -15 -58 -15 -13 0 -42 -9 -64 -20 -22 -12
-44 -18 -50 -15 -13 8 -108 -26 -194 -69 -38 -20 -76 -36 -83 -36 -6 0 -36
-24 -66 -52 -30 -29 -73 -71 -96 -92 -23 -22 -50 -58 -62 -80 -11 -23 -36 -56
-56 -73 l-37 -33 23 -19 c34 -30 23 -102 -21 -139 -9 -8 -17 -42 -22 -90 -4
-42 -15 -114 -26 -160 -27 -116 -25 -158 11 -234 16 -34 30 -70 30 -79 0 -9
22 -90 50 -181 72 -239 103 -366 104 -425 1 -29 4 -53 9 -53 10 0 9 -25 -4
-54 -8 -17 -27 -30 -63 -41 -63 -20 -137 -68 -194 -126 -54 -55 -166 -280
-251 -508 -79 -210 -104 -257 -205 -381 -47 -58 -86 -114 -86 -126 0 -11 -16
-36 -36 -55 -93 -90 -136 -203 -133 -351 l1 -98 -58 -62 c-85 -93 -128 -165
-287 -484 -79 -159 -177 -347 -217 -419 -89 -156 -216 -399 -230 -439 -5 -16
-10 -46 -10 -66 0 -21 -7 -54 -16 -75 -25 -61 -113 -196 -176 -270 -33 -38
-71 -91 -84 -117 -13 -26 -42 -75 -64 -109 -22 -34 -40 -66 -40 -72 0 -5 -18
-49 -40 -98 -22 -49 -40 -96 -40 -104 0 -9 12 -18 28 -21 l29 -6 -15 -44 c-15
-47 -12 -71 13 -81 32 -12 61 16 108 101 27 48 51 85 54 83 2 -3 -12 -53 -32
-111 -39 -114 -39 -142 1 -152 42 -11 66 18 123 142 60 132 124 246 149 266
13 11 15 10 9 -7 -25 -80 -77 -309 -77 -339 0 -22 28 -46 55 -46 33 0 46 23
98 170 55 152 84 220 101 234 7 6 28 31 46 55 30 39 36 43 68 38 18 -4 41 -12
49 -19 22 -18 43 -71 54 -136 4 -30 20 -73 35 -95 l26 -40 -36 -106 c-45 -135
-68 -234 -101 -444 -58 -375 -43 -654 66 -1217 45 -228 57 -392 55 -720 l-1
-185 -62 -105 c-104 -176 -161 -314 -200 -488 -15 -70 -17 -145 -14 -827 l3
-750 -33 -95 c-29 -84 -33 -108 -34 -210 -2 -93 -6 -124 -23 -162 -11 -26 -31
-80 -42 -120 -32 -105 -62 -174 -125 -279 -30 -51 -58 -109 -61 -129 -3 -19
-12 -55 -20 -79 -15 -48 -18 -109 -6 -127 4 -6 30 -21 57 -33 28 -12 58 -26
67 -31 10 -6 30 -10 44 -10 15 0 32 -6 38 -14 21 -27 52 -28 83 -2 l28 24 28
-24 c60 -51 168 -14 192 66 4 14 20 39 35 57 40 45 54 95 46 167 -3 34 -1 106
5 161 10 89 16 108 53 170 40 69 41 71 42 170 0 55 6 113 12 128 7 16 17 86
22 155 12 164 32 248 134 577 46 148 100 325 120 393 20 68 59 173 87 235 82
179 117 295 162 547 32 172 62 251 142 370 76 113 91 151 111 285 8 55 34 161
58 235 48 147 67 233 91 410 20 152 43 230 125 440 127 323 195 620 207 898
l6 143 21 -20 c28 -26 59 -37 128 -45 54 -7 57 -9 72 -47 9 -21 39 -130 66
-241 79 -314 80 -317 222 -633 47 -104 109 -244 138 -310 29 -66 71 -156 95
-200 213 -399 273 -553 345 -890 35 -162 59 -235 114 -341 44 -86 55 -136 56
-245 0 -47 9 -157 20 -245 34 -277 91 -445 210 -623 86 -128 115 -190 291
-614 144 -348 178 -443 224 -634 20 -80 43 -159 51 -174 9 -18 14 -58 14 -111
0 -112 13 -155 64 -203 41 -39 68 -53 153 -75 36 -9 49 -21 98 -92 32 -44 66
-101 78 -127 11 -25 29 -58 40 -73 24 -33 85 -75 122 -84 14 -3 32 -19 40 -35
18 -35 49 -56 98 -70 31 -8 45 -6 82 10 26 12 50 30 56 45 10 21 15 23 31 15
31 -16 68 -2 79 30 6 16 21 33 34 39 14 7 26 18 26 27 2 23 3 26 28 77 28 59
20 97 -39 173 -55 72 -110 119 -214 184 -76 48 -97 68 -184 179 -161 205 -166
214 -211 362 -22 74 -47 178 -55 230 -86 543 -104 678 -156 1150 -44 391 -87
591 -168 776 -63 143 -104 280 -108 364 -3 41 -9 101 -15 132 -10 57 -1 152
21 214 7 19 9 249 6 669 -4 666 -4 669 -51 949 -17 96 -50 229 -91 360 -21 69
-23 84 -13 109 11 26 10 32 -8 46 -22 19 -40 71 -23 71 6 0 10 6 9 13 -1 6 2
21 6 31 6 13 3 23 -8 31 -20 14 -30 61 -57 260 -24 175 -49 280 -80 332 -12
21 -25 52 -27 68 -3 17 -9 38 -14 48 -11 19 -39 23 -39 5 0 -22 -16 5 -38 62
-11 30 -28 105 -37 165 -9 61 -21 139 -26 174 -6 36 -21 90 -35 122 -13 32
-24 66 -23 76 0 11 3 13 6 6 2 -7 11 -13 19 -13 17 0 17 -5 4 -31 -9 -16 -7
-19 14 -19 20 0 29 9 45 45 11 24 30 56 44 70 22 25 48 115 73 258 13 79 13
26 -1 -94 -9 -79 -11 -125 -5 -127 6 -2 10 -19 10 -39 0 -52 23 -36 33 22 4
27 14 53 22 59 9 7 28 84 50 206 20 107 49 246 66 309 70 265 95 448 105 777
5 143 3 262 -6 369 l-13 159 27 20 c79 60 131 116 158 169 16 33 42 77 58 99
35 49 46 111 31 185 -21 107 -159 433 -282 666 -156 296 -189 381 -189 484 0
73 -3 83 -39 144 -55 95 -64 125 -47 157 35 68 86 209 86 238 0 17 -7 37 -15
44 -9 7 -15 29 -15 55 0 64 -17 101 -54 119 -19 9 -41 26 -49 39 -9 13 -41 34
-72 47 -43 17 -54 26 -50 40 7 22 -31 70 -55 70 -25 0 -111 -46 -128 -67 -11
-15 -16 -13 -53 23 -22 21 -55 59 -72 84 -89 131 -250 277 -364 330 -26 13
-61 38 -78 56 -36 40 -77 50 -124 29z m-365 -1893 c4 -19 2 -32 -4 -32 -5 0
-12 18 -14 40 -4 45 8 40 18 -8z m94 -2 c0 -13 -1 -13 -10 0 -5 8 -10 22 -10
30 0 13 1 13 10 0 5 -8 10 -22 10 -30z m-278 -32 c-7 -7 -12 -8 -12 -2 0 14
12 26 19 19 2 -3 -1 -11 -7 -17z m1765 -1570 c-3 -7 -5 -2 -5 12 0 14 2 19 5
13 2 -7 2 -19 0 -25z m10 -215 c-4 -17 -4 -17 -12 0 -4 9 -4 25 0 35 8 16 8
16 12 0 3 -10 3 -26 0 -35z m0 -65 c-3 -7 -5 -2 -5 12 0 14 2 19 5 13 2 -7 2
-19 0 -25z m-170 -30 c-3 -8 -6 -5 -6 6 -1 11 2 17 5 13 3 -3 4 -12 1 -19z
m-66 -225 c0 -162 -4 -251 -15 -307 -16 -82 -34 -122 -23 -51 4 22 12 165 19
317 6 153 13 276 16 274 2 -2 3 -107 3 -233z m110 -179 l-10 -49 4 49 c3 27 6
70 7 95 l2 46 3 -46 c2 -25 -1 -68 -6 -95z m-296 -104 c-9 -76 -20 -151 -26
-166 -10 -33 -12 -50 18 195 10 79 20 136 21 127 2 -10 -4 -80 -13 -156z
m-2165 -126 c-15 -76 -35 -127 -81 -219 -51 -102 -64 -138 -85 -245 -27 -138
-45 -179 -109 -254 -51 -61 -81 -117 -91 -170 -4 -24 -18 -49 -36 -65 -36 -32
-49 -98 -25 -134 11 -18 12 -28 4 -43 -6 -10 -20 -52 -32 -93 -12 -41 -25 -70
-28 -64 -4 6 -11 60 -16 120 -9 95 -16 123 -62 238 -28 72 -54 148 -56 170 -6
54 64 252 109 309 18 22 113 128 213 235 99 107 209 228 245 269 40 46 66 69
68 60 2 -8 -6 -60 -18 -114z m2127 -106 c-3 -8 -6 -5 -6 6 -1 11 2 17 5 13 3
-3 4 -12 1 -19z m40 -300 c-3 -8 -6 -5 -6 6 -1 11 2 17 5 13 3 -3 4 -12 1 -19z
m-2544 -619 c-8 -29 -13 -23 -13 14 0 22 3 28 9 18 5 -7 6 -22 4 -32z m2819
-282 c16 -43 89 -362 87 -383 0 -5 -20 59 -43 141 -24 83 -53 174 -65 203 -11
29 -21 62 -21 73 0 35 24 15 42 -34z m33 -415 c-5 -6 -33 95 -39 143 -3 22 5
0 19 -50 13 -49 22 -91 20 -93z"/>
</g>
</svg>
