<?xml version="1.0" encoding="utf-8"?>
<!-- Generator: Adobe Illustrator 13.0.0, SVG Export Plug-In . SVG Version: 6.00 Build 14576)  -->
<!DOCTYPE svg PUBLIC "-//W3C//DTD SVG 1.1 Tiny//EN" "http://www.w3.org/Graphics/SVG/1.1/DTD/svg11-tiny.dtd">
<svg version="1.1" baseProfile="tiny" id="Layer_1" xmlns="http://www.w3.org/2000/svg" xmlns:xlink="http://www.w3.org/1999/xlink"
	 x="0px" y="0px" width="360px" height="740px" viewBox="0 0 360 740" xml:space="preserve">
<path d="M104.168,162.953l0.559,11.785l-4.157,8.749c-8.805,18.525-8.837,28.492-0.326,46.968
	c4.136,8.978,24.728,46.86,26.277,61.806c1.095,10.546,3.151,38.826,3.416,43.269c0.442,7.422-6.575,16.402-9.492,23.217
	c-14.667,34.264-23.627,66.775-28.951,105.049c-1.173,8.428-3.042,16.699-5.058,22.371c-2.636,7.422-3.342,11.279-4.024,22
	c-0.455,7.15-5.144,42.25-10.417,78l-6.868,50.008c0,0-7.185,26.564-9.856,32.957c-2.671,6.391-6.719,21.506-7.794,24.283
	c-1.075,2.779-2.613,3.74-2.613,3.74s-9.671,7.191-14.508,7.91c-4.835,0.721-8.671-0.098-10.247,2.961c0,0-2.763,5.785-1.386,7.496
	s12.44,1.514,12.44,1.514s20.896,1.168,25.732-1.514c0.508-0.283,2.459-1.615,5.894-5.518c3.843-4.367,7.717-10.674,12.459-15.094
	c1.582-1.475,3.036-2.773,4.378-3.863c3.137-2.551,5.66-3.953,7.762-3.744c5.688,0.562,4.521,29.73,4.521,29.73h2.965
	c0,0-1.245-24.578,6.042-34.838c8.77-12.348-5.787-27.133-6.544-28.109l-1.076,0.814c0,0-3.779,1.443-1.476-9.543
	c2.303-10.984,4.197-19.561,4.197-19.561s6.367-25.506,13.991-44.779c6.95-17.572,10.42-35.248,10.42-53.082
	c0-8.176,0.115-8.555,8.943-29.525c6.074-14.43,16.858-36.322,33.616-68.244c11.102-21.146,20.565-39.955,23.946-46.143
	c0.34-0.621,0.537-0.938,0.752-1.092c0.262-0.186,0.514-0.131,0.633-0.131c0.137,0,0.434-0.135,0.678,0.064
	c0.146,0.119,0.215,0.408,0.393,0.789c2.367,5.076,5.434,26.18,9.541,42.512c5.232,20.809,11.424,37.564,12.525,51.5
	c1.178,14.891,2.98,20.703,8.547,27.537c4.381,5.377,4.523,5.775,5.947,16.736c4.33,33.33,6.826,78.316,5.752,101.32
	c-0.076,1.635-0.967,8.471-0.967,8.471c-1.562,13.16-4.709,19.943-5.697,30.859c-0.99,10.916-4.24,34.803-4.24,34.803
	s-11.186,9.832-12.697,11.16s-4.879,7.098,1.051,8.053c5.926,0.953,24.281,1.564,27.023,1.029s10.436-2.607,11.125-6.697
	c0.693-4.092,1.764-16.285,3.197-18.615c1.434-2.334,2.084-3.574,2.084-3.574s1.322,4.92,1.336,11.918
	c0.014,7,0.113,15.729,0.113,15.729h2.172c0,0,0.229-25.229,0.729-29.229s2.062-9.41,2.062-9.41s1.258-1.438,2.561-3.479
	c3.346-5.232,2.043-11.781-0.453-15.674c-1.891-2.947-4.059-5.498-5.154-6.568c-1.877-1.832-3.688-2.52-3.688-2.52
	s3.699-24.982,4.549-30.949c1.777-12.482,4.393-23.719,6.928-36.898c2.904-15.102,4.127-27.105,3.973-36.699
	c-0.154-9.596-0.678-25.018-7.316-45.801l-3.832-12l0.873-70.5c-1.6-53.035-5.494-71.986-6.611-76.5
	c-6.75-27.277-33.891-55.001-37.303-59.907c-7.062-10.158-11.615-20.758-11.553-32.946c0.035-6.851,9.332-35.117,17.732-46.146
	l13.02-23.297c2.672-4.676,26.053-14.103,45.87-29.006c20.21-15.197,36.885-35.873,41.823-40.811
	c9.778-9.781,11.13-17.539,4.721-22.26c-6.408-4.722-69.818-16.527-78.586-18.213c-8.77-1.687-15.516-3.373-21.585-6.071
	c-6.071-2.698-12.817-1.012-12.817-1.012s2.023-4.722,2.023-7.082c0-2.361-3.037-12.816-6.746-16.864
	c-3.71-4.048-10.117-2.36-10.117-2.36s-1.013,0-1.688-3.036c-0.676-3.036-0.336-3.035-2.023-3.71c-1.686-0.675,0,0-3.711,0.674
	c-3.711,0.674-18.55,0.674-24.285,3.035c-5.733,2.361-13.153,10.456-15.177,13.154c-2.024,2.699-9.78,7.757-15.515,8.433
	c-5.733,0.676-2.698,2.023-14.166-0.337c-5.487-1.13-22.021-4.254-38.449-5.734c-17.898-1.61-35.725-1.524-40.473-1.35
	c-9.107,0.338-8.77,7.421-7.757,14.167c1.011,6.746,23.607,49.242,31.029,62.733C72.509,135.712,104.168,162.953,104.168,162.953z
	 M143.337,132.676c-2.363,3.036-16.189,4.722-17.876,4.048c0,0-5.581-7.635-13.49-14.84c-4.555-4.149-10.801-7.013-14.841-11.131
	c-5.086-5.187-7.706-10.53-8.77-11.805C84.986,94.9,70.822,75.339,70.822,75.339s11.18-3.058,24.958-3.71
	c12.766-0.605,28.098,1.187,30.694,1.348c5.396,0.337,13.489,17.539,13.152,21.248c-0.337,3.71,1.348,17.539,2.361,22.261
	C142.998,121.209,145.7,129.641,143.337,132.676z M250.256,126.605c-3.711,2.361-31.031,9.105-35.416,12.142
	c-4.385,3.036-9.78,10.119-12.141,7.758c-2.361-2.362,2.699-6.408,2.023-11.805c-0.676-5.397-0.676-5.396-2.023-12.479
	c-1.349-7.083,1.012-9.782,1.687-14.503c0.676-4.722,3.374-12.479,3.374-12.479s12.141-13.153,18.887-11.805
	c3.705,0.741,20.908,4.374,35.416,10.119c11.914,4.717,21.922,11.805,21.922,11.805S253.965,124.244,250.256,126.605z"/>
<rect fill="none" width="360" height="740"/>
</svg>
